<svg xmlns="http://www.w3.org/2000/svg" viewBox="0 0 148.12 177.54"><defs><style>.cls-1{fill:#ce5959;}</style></defs><g id="Layer_2" data-name="Layer 2"><g id="Object"><polygon class="cls-1" points="22.73 0 48.91 26.18 121.94 26.18 121.94 99.21 148.12 125.39 148.12 0 22.73 0"/><path class="cls-1" d="M.73,26.18V147.39H121.94V99.21l-73-73ZM98.85,129.66H19.92V48.14h5.57v76H98.85Z"/><path class="cls-1" d="M10.49,174.55a.41.41,0,0,1,.28.12l.73.8A5.94,5.94,0,0,1,9.45,177a6.88,6.88,0,0,1-2.9.55,6.91,6.91,0,0,1-2.7-.51,6.17,6.17,0,0,1-2.06-1.44,6.49,6.49,0,0,1-1.32-2.22A8.39,8.39,0,0,1,0,170.52a7.93,7.93,0,0,1,.5-2.85,6.55,6.55,0,0,1,1.42-2.22A6.36,6.36,0,0,1,4.1,164a7.46,7.46,0,0,1,2.8-.51,6.74,6.74,0,0,1,2.62.47,6.73,6.73,0,0,1,2,1.28l-.61.85a.57.57,0,0,1-.15.16.44.44,0,0,1-.25.06.48.48,0,0,1-.26-.09L9.87,166l-.45-.28a3.59,3.59,0,0,0-.62-.29,4.78,4.78,0,0,0-.82-.23,5.93,5.93,0,0,0-1.09-.09,5.25,5.25,0,0,0-2,.38,4.36,4.36,0,0,0-1.58,1.08,4.89,4.89,0,0,0-1,1.71,6.4,6.4,0,0,0-.37,2.25,6.51,6.51,0,0,0,.37,2.29,5,5,0,0,0,1,1.7,4.19,4.19,0,0,0,1.51,1.06,4.74,4.74,0,0,0,1.88.37,9.16,9.16,0,0,0,1.11-.07,4.94,4.94,0,0,0,.9-.23,3.56,3.56,0,0,0,.78-.39,5,5,0,0,0,.72-.56A.53.53,0,0,1,10.49,174.55Z"/><path class="cls-1" d="M31.5,170.52a8,8,0,0,1-.49,2.83,6.62,6.62,0,0,1-1.38,2.22A6.33,6.33,0,0,1,27.48,177,7.72,7.72,0,0,1,22,177a6.25,6.25,0,0,1-3.52-3.67,8.42,8.42,0,0,1,0-5.66,6.45,6.45,0,0,1,1.38-2.23A6.15,6.15,0,0,1,22,164a7.58,7.58,0,0,1,5.52,0,6.19,6.19,0,0,1,2.15,1.45A6.76,6.76,0,0,1,31,167.69,8,8,0,0,1,31.5,170.52Zm-1.91,0a7,7,0,0,0-.35-2.27,4.79,4.79,0,0,0-1-1.7,4.27,4.27,0,0,0-1.54-1.07,5.51,5.51,0,0,0-4,0,4.27,4.27,0,0,0-1.54,1.07,4.81,4.81,0,0,0-1,1.7,7.75,7.75,0,0,0,0,4.54,4.76,4.76,0,0,0,1,1.69,4.27,4.27,0,0,0,1.54,1.07,5.64,5.64,0,0,0,4,0,4.27,4.27,0,0,0,1.54-1.07,4.74,4.74,0,0,0,1-1.69A7,7,0,0,0,29.59,170.52Z"/><path class="cls-1" d="M45.83,172.9c.06.17.13.34.19.52.07-.18.13-.35.2-.52s.15-.32.24-.49L51.11,164a.61.61,0,0,1,.26-.27,1.33,1.33,0,0,1,.39,0h1.37v13.74H51.5v-10.1c0-.14,0-.28,0-.43a3.71,3.71,0,0,1,0-.47L46.83,175a.74.74,0,0,1-.67.43h-.27a.73.73,0,0,1-.67-.43l-4.82-8.62c0,.17,0,.33.05.49s0,.3,0,.44v10.1H38.83V163.65H40.2a1.33,1.33,0,0,1,.39,0,.6.6,0,0,1,.25.27l4.75,8.46A3.58,3.58,0,0,1,45.83,172.9Z"/><path class="cls-1" d="M63.31,172.25v5.14H61.46V163.65h4.05a7.66,7.66,0,0,1,2.27.3,4.23,4.23,0,0,1,1.6.86,3.33,3.33,0,0,1,.94,1.34,4.66,4.66,0,0,1,.31,1.75,4.56,4.56,0,0,1-.33,1.76,3.8,3.8,0,0,1-1,1.37,4.63,4.63,0,0,1-1.61.89,6.74,6.74,0,0,1-2.2.33Zm0-1.48h2.2a4.36,4.36,0,0,0,1.41-.21,2.83,2.83,0,0,0,1-.59,2.5,2.5,0,0,0,.62-.91,3.11,3.11,0,0,0,.21-1.16,2.64,2.64,0,0,0-.81-2.05,3.54,3.54,0,0,0-2.45-.74h-2.2Z"/><path class="cls-1" d="M87.76,177.39H86.32a.64.64,0,0,1-.4-.13.75.75,0,0,1-.23-.32l-1.29-3.31H78.24L77,176.94a.68.68,0,0,1-.23.31.59.59,0,0,1-.4.14H74.88l5.5-13.74h1.89Zm-9-5.11h5.13l-2.16-5.59a9.46,9.46,0,0,1-.41-1.29q-.1.39-.21.72c-.07.22-.13.42-.2.58Z"/><path class="cls-1" d="M95.62,163.71a.85.85,0,0,1,.27.25l8,10.36c0-.17,0-.33,0-.49s0-.31,0-.45v-9.73h1.63v13.74h-.94a.81.81,0,0,1-.37-.08.87.87,0,0,1-.29-.26l-8-10.35,0,.47c0,.16,0,.3,0,.43v9.79H94.29V163.65h1A.89.89,0,0,1,95.62,163.71Z"/><path class="cls-1" d="M118.87,171.92v5.47H117v-5.47l-5-8.27h1.63a.59.59,0,0,1,.39.12,1.1,1.1,0,0,1,.25.31l3.15,5.34c.12.22.23.43.32.63s.16.39.23.59c.07-.2.15-.4.23-.6a4.08,4.08,0,0,1,.32-.62l3.13-5.34a1.32,1.32,0,0,1,.24-.3.56.56,0,0,1,.39-.13h1.65Z"/></g></g></svg>