<svg xmlns="http://www.w3.org/2000/svg" viewBox="0 0 174.25 188.41"><defs><style>.cls-1{fill:#403449;}</style></defs><g id="Layer_2" data-name="Layer 2"><g id="Object"><polygon class="cls-1" points="82.71 75.44 83.81 73.53 106.7 33.9 87.13 0 43.56 75.44 87.13 150.88 106.7 116.99 83.81 77.36 82.71 75.44"/><polygon class="cls-1" points="59.82 111.25 43.56 139.41 6.63 75.44 43.56 11.48 59.82 39.63 63.13 33.9 43.56 0 0 75.44 43.56 150.88 63.13 116.99 59.82 111.25"/><polygon class="cls-1" points="129.7 66.23 129.73 66.25 129.73 54.08 102.26 101.65 105.75 107.7 129.7 66.23"/><polygon class="cls-1" points="129.7 49.59 129.73 49.61 129.73 37.44 97.46 93.34 100.95 99.38 129.7 49.59"/><polygon class="cls-1" points="91.34 82.74 129.7 16.32 129.73 16.34 129.73 1.66 87.13 75.44 91.34 82.74"/><polygon class="cls-1" points="129.7 32.95 129.73 32.97 129.73 20.81 92.65 85.02 96.14 91.06 129.7 32.95"/><polygon class="cls-1" points="131.64 1.66 131.64 149.23 174.25 75.44 131.64 1.66"/><polygon class="cls-1" points="129.7 82.86 129.73 82.88 129.73 70.72 107.06 109.97 110.55 116.02 129.7 82.86"/><polygon class="cls-1" points="129.7 99.5 129.73 99.52 129.73 87.35 111.87 118.29 115.36 124.33 129.7 99.5"/><polygon class="cls-1" points="129.73 133.39 125.16 141.31 129.73 149.23 129.73 133.39"/><polygon class="cls-1" points="123.84 139.03 129.7 128.9 129.73 128.92 129.73 120.62 121.47 134.93 123.84 139.03 123.84 139.03"/><polygon class="cls-1" points="129.7 116.13 129.73 116.16 129.73 103.99 116.67 126.61 120.16 132.65 129.7 116.13"/><path class="cls-1" d="M45.74,179.77A4.83,4.83,0,0,1,46.9,183a5,5,0,0,1-1.67,3.94,7.08,7.08,0,0,1-4.84,1.48H32.92V168.3h7.36a6.87,6.87,0,0,1,4.59,1.34,4.57,4.57,0,0,1,1.57,3.68,4.65,4.65,0,0,1-1,3.14A4.76,4.76,0,0,1,42.73,178,5.19,5.19,0,0,1,45.74,179.77Zm-10.23-2.66h4.34a4.3,4.3,0,0,0,2.92-.88,3.49,3.49,0,0,0,0-4.91,4.53,4.53,0,0,0-3.06-.88H35.51Zm7.58,8.19a3.65,3.65,0,0,0,0-5.29,4.88,4.88,0,0,0-3.21-1H35.51v7.19h4.4A4.81,4.81,0,0,0,43.09,185.3Z"/><path class="cls-1" d="M66.53,188.41l-5.25-8.22H58.45v8.22h-2.6V168.3h6.62a7.13,7.13,0,0,1,5.14,1.64,5.74,5.74,0,0,1,1.71,4.35,5.6,5.6,0,0,1-1.37,4,6.38,6.38,0,0,1-4,1.87l5.47,8.3Zm-8.08-10.1h3.8c2.94,0,4.42-1.29,4.42-3.88s-1.48-3.88-4.42-3.88h-3.8Z"/><path class="cls-1" d="M90,183.76H81.13l-1.68,4.65h-2.8l7.45-19.74H87l7.42,19.74h-2.8Zm-.74-2-3.68-10.15-3.68,10.15Z"/><path class="cls-1" d="M118.42,188.41h-2.59l-10.44-15.89v15.89h-2.6V168.3h2.6l10.44,15.92V168.3h2.59Z"/><path class="cls-1" d="M144,183.66a8.5,8.5,0,0,1-3.61,3.51,12.23,12.23,0,0,1-5.72,1.24H128.3V168.3h6.39a12.48,12.48,0,0,1,5.72,1.21A8.32,8.32,0,0,1,144,173a12.27,12.27,0,0,1,0,10.67Zm-3.51.39a8.91,8.91,0,0,0,0-11.43,8.24,8.24,0,0,0-6-2h-3.6v15.49h3.6A8.3,8.3,0,0,0,140.51,184.05Z"/></g></g></svg>