<svg xmlns="http://www.w3.org/2000/svg" viewBox="0 0 276.09 149.77"><defs><style>.cls-1{fill:#ce5959;}</style></defs><g id="Layer_2" data-name="Layer 2"><g id="Object"><path class="cls-1" d="M139.6,70.38a11.19,11.19,0,0,1-1.78-6.78V53.77q0-4.52,1.77-6.87t6.08-2.34q4.05,0,5.75,2a9,9,0,0,1,1.7,5.88v2.31h-4.83V52.41a13.76,13.76,0,0,0-.14-2.29,2.31,2.31,0,0,0-.69-1.36,2.51,2.51,0,0,0-1.75-.53,2.66,2.66,0,0,0-1.84.56,2.71,2.71,0,0,0-.8,1.5,13.13,13.13,0,0,0-.19,2.43V64.65A6.91,6.91,0,0,0,143.5,68a2.32,2.32,0,0,0,2.21,1,2.37,2.37,0,0,0,1.71-.54,2.51,2.51,0,0,0,.72-1.45,15.19,15.19,0,0,0,.15-2.39V62.2h4.83v2.21a10,10,0,0,1-1.67,6.18c-1.11,1.46-3,2.19-5.78,2.19S140.79,72,139.6,70.38Z"/><path class="cls-1" d="M159.71,70.48c-1.22-1.53-1.83-3.76-1.83-6.71V53.43q0-4.38,1.83-6.63t6.12-2.24q4.26,0,6.09,2.24c1.22,1.5,1.84,3.71,1.84,6.63V63.77c0,2.92-.62,5.16-1.86,6.7s-3.26,2.31-6.07,2.31S160.94,72,159.71,70.48ZM168.08,68a6.54,6.54,0,0,0,.58-3.06V52.28a6.37,6.37,0,0,0-.57-3,2.33,2.33,0,0,0-2.26-1,2.36,2.36,0,0,0-2.27,1,6.22,6.22,0,0,0-.58,3V65a6.42,6.42,0,0,0,.58,3.06,3,3,0,0,0,4.52,0Z"/><path class="cls-1" d="M179.57,44.86h5.2l3.91,19.08,4-19.08h5.06l.51,27.54h-3.74l-.4-19.14L190.25,72.4h-3l-4-19.21-.37,19.21h-3.78Z"/><path class="cls-1" d="M204.08,44.86h8.1q7,0,7,7.82,0,7.49-7.37,7.48h-2.76V72.4h-5ZM211,56.63a3.44,3.44,0,0,0,2.75-.87,5,5,0,0,0,.72-3.11,9.93,9.93,0,0,0-.24-2.5,2.13,2.13,0,0,0-1-1.31A4.55,4.55,0,0,0,211,48.4h-1.94v8.23Z"/><path class="cls-1" d="M226.39,44.86h5.37l5.51,27.54h-4.66l-1.09-6.35h-4.79l-1.12,6.35h-4.73Zm4.59,18-1.87-11.56-1.87,11.56Z"/><path class="cls-1" d="M241.72,44.86h3.5l6.7,15.71V44.86h4.15V72.4h-3.33L246,56V72.4h-4.29Z"/><path class="cls-1" d="M265.79,61.9l-5.57-17h4.69l3.4,10.92,3.19-10.92h4.59l-5.5,17V72.4h-4.8Z"/><path class="cls-1" d="M147.32,84.44v1.44h-4.08V97.07h-1.71V85.88h-4.1V84.44Z"/><path class="cls-1" d="M160.11,97.07h-1.32a.53.53,0,0,1-.37-.12.64.64,0,0,1-.22-.29l-1.18-3h-5.66l-1.18,3A.86.86,0,0,1,150,97a.55.55,0,0,1-.37.12h-1.32l5-12.63h1.74Zm-8.28-4.69h4.72l-2-5.14a10.17,10.17,0,0,1-.37-1.19c-.07.24-.13.47-.19.67l-.18.53Z"/><path class="cls-1" d="M168.73,95.83a9,9,0,0,0,.94,0,4.93,4.93,0,0,0,.8-.15,5.5,5.5,0,0,0,.72-.23c.22-.09.44-.2.67-.31V92.3h-2a.36.36,0,0,1-.27-.1.29.29,0,0,1-.1-.23V91h3.88v4.84a7.25,7.25,0,0,1-1,.6,6.72,6.72,0,0,1-1.11.43,7.89,7.89,0,0,1-1.25.26,13.11,13.11,0,0,1-1.46.08,6.69,6.69,0,0,1-2.52-.47,6,6,0,0,1-2-1.32,6.12,6.12,0,0,1-1.29-2,7.18,7.18,0,0,1-.46-2.62,7.46,7.46,0,0,1,.45-2.64,5.82,5.82,0,0,1,1.29-2,5.92,5.92,0,0,1,2-1.31,7.35,7.35,0,0,1,2.68-.47,8.7,8.7,0,0,1,1.39.11,6.1,6.1,0,0,1,1.19.32,5.37,5.37,0,0,1,1,.5,7.1,7.1,0,0,1,.87.66l-.48.78a.45.45,0,0,1-.39.24.59.59,0,0,1-.31-.1c-.15-.08-.31-.18-.49-.3a4.16,4.16,0,0,0-.67-.34,5.6,5.6,0,0,0-.92-.28,6.67,6.67,0,0,0-1.27-.11,5.18,5.18,0,0,0-1.93.35,4.15,4.15,0,0,0-1.47,1,4.48,4.48,0,0,0-.93,1.57,6.78,6.78,0,0,0,0,4.21,4.54,4.54,0,0,0,1,1.59,4.2,4.2,0,0,0,1.46,1A4.9,4.9,0,0,0,168.73,95.83Z"/><path class="cls-1" d="M184.67,95.63h5.46v1.44H183V84.44h1.71Z"/><path class="cls-1" d="M195.81,97.07H194.1V84.44h1.71Z"/><path class="cls-1" d="M202.17,84.5a.85.85,0,0,1,.26.23l7.31,9.52a3.4,3.4,0,0,1,0-.45c0-.14,0-.28,0-.41v-9h1.49V97.07h-.86A.71.71,0,0,1,210,97a1,1,0,0,1-.27-.24l-7.3-9.51c0,.15,0,.29,0,.43s0,.27,0,.39v9H201V84.44h.89A.69.69,0,0,1,202.17,84.5Z"/><path class="cls-1" d="M223.82,84.44v1.39h-6.06V90h4.91v1.34h-4.91v4.31h6.06v1.39H216V84.44Z"/><path class="cls-1" d="M44.63,6.44,120.56,28v75.55L44.63,82V6.44M39.76,0V85.67L125.42,110V24.34L39.76,0Z"/><polygon class="cls-1" points="85.67 149.77 0 125.42 0 39.76 85.67 64.1 85.67 149.77"/><path class="cls-1" d="M41.18,5.47l74.94,21.29L84.25,58.64,9.3,37.34,41.18,5.47M39.76,0,0,39.76,85.67,64.1l39.75-39.76L39.76,0Z"/><polygon class="cls-1" points="90.49 144.95 125.42 110.01 90.49 100.08 90.49 144.95"/></g></g></svg>