<svg xmlns="http://www.w3.org/2000/svg" viewBox="0 0 164.37 180.22"><defs><style>.cls-1{fill:#f6b217;}</style></defs><g id="Layer_2" data-name="Layer 2"><g id="Object"><path class="cls-1" d="M89.73,21.57a55.36,55.36,0,0,1-2.52,96.57A55.35,55.35,0,1,0,60.65,13.8,55.09,55.09,0,0,1,89.73,21.57Z"/><path class="cls-1" d="M26.46,102.29A71.89,71.89,0,0,0,39.07,127a76.83,76.83,0,0,0,13.29,7.68,74.86,74.86,0,0,1-14.79-27.75,80.72,80.72,0,0,1-.82-41.69,76.44,76.44,0,0,1-4.17-20.88A76.73,76.73,0,0,0,26.46,102.29Z"/><path class="cls-1" d="M40.23,106.16a72.43,72.43,0,0,0,18,30.87,76.32,76.32,0,0,0,90.44-32,75.94,75.94,0,0,1-39.93,11.28A76.36,76.36,0,0,1,38.56,69.91,78.37,78.37,0,0,0,40.23,106.16Z"/><path class="cls-1" d="M32.46,39.05A75.93,75.93,0,0,1,43.73,0,76.3,76.3,0,0,0,31.34,120.59a74.09,74.09,0,0,1-7.54-17.54C17.4,80.48,20.93,57.47,32.46,39.05Z"/><path class="cls-1" d="M61.43,29.45S42.55,80.29,93,98C112.33,48.16,61.43,29.45,61.43,29.45Z"/><path class="cls-1" d="M4.56,179.06a8.69,8.69,0,0,1-3.35-3.21,9.41,9.41,0,0,1,0-9.25,8.6,8.6,0,0,1,3.37-3.21,9.79,9.79,0,0,1,4.79-1.17,10,10,0,0,1,3.92.75,8.07,8.07,0,0,1,3,2.18l-2.1,2a6.14,6.14,0,0,0-4.67-2.05,6.5,6.5,0,0,0-3.23.79,5.72,5.72,0,0,0-2.23,2.19,6.78,6.78,0,0,0,0,6.35,5.7,5.7,0,0,0,2.23,2.18,6.5,6.5,0,0,0,3.23.79,6.09,6.09,0,0,0,4.67-2.07l2.1,2a8,8,0,0,1-3,2.17,10.1,10.1,0,0,1-3.94.75A9.92,9.92,0,0,1,4.56,179.06Z"/><path class="cls-1" d="M27.4,179.06A8.59,8.59,0,0,1,24,175.83a9.25,9.25,0,0,1,0-9.22,8.56,8.56,0,0,1,3.37-3.22,10.53,10.53,0,0,1,9.65,0,8.54,8.54,0,0,1,3.37,3.21,9.31,9.31,0,0,1,0,9.25,8.68,8.68,0,0,1-3.37,3.21,10.61,10.61,0,0,1-9.65,0Zm8-2.48a5.62,5.62,0,0,0,2.19-2.19,6.59,6.59,0,0,0,0-6.33,5.72,5.72,0,0,0-2.19-2.2,6.7,6.7,0,0,0-6.31,0,5.72,5.72,0,0,0-2.19,2.2,6.59,6.59,0,0,0,0,6.33,5.62,5.62,0,0,0,2.19,2.19,6.7,6.7,0,0,0,6.31,0Z"/><path class="cls-1" d="M66.17,180l0-11.6L60.4,178H59l-5.75-9.45V180H50.1v-17.5h2.67l6.95,11.6,6.83-11.6h2.67l0,17.5Z"/><path class="cls-1" d="M90.14,163.22a5.79,5.79,0,0,1,2.58,2.15,6.57,6.57,0,0,1,0,6.64,5.75,5.75,0,0,1-2.58,2.16,9.73,9.73,0,0,1-4,.75h-4V180H79v-17.5h7.2A9.73,9.73,0,0,1,90.14,163.22Zm-.89,8.05a3.56,3.56,0,0,0,0-5.15,5,5,0,0,0-3.23-.9h-3.8v6.95H86A5,5,0,0,0,89.25,171.27Z"/><path class="cls-1" d="M112.35,175.92H103.6L101.88,180H98.52l7.88-17.5h3.2l7.9,17.5h-3.4Zm-1.08-2.55-3.3-7.65-3.27,7.65Z"/><path class="cls-1" d="M140.27,162.47V180H137.6L128,168.12V180h-3.23v-17.5h2.68l9.65,11.85V162.47Z"/><path class="cls-1" d="M157.52,173.8V180h-3.25v-6.12l-6.87-11.38h3.47L156,171l5.17-8.53h3.2Z"/></g></g></svg>