<svg width="3333" height="3333" xmlns="http://www.w3.org/2000/svg" clip-rule="evenodd">

 <g>
  <title>background</title>
  <rect fill="none" id="canvas_background" height="514" width="514" y="-1" x="-1"/>
 </g>
 <g>
  <title>Layer 1</title>
  <path fill="#283618" id="svg_1" d="m1274,1081c55,0 105,5 150,15c45,9 84,26 116,47c32,22 57,51 75,88c18,36 26,81 26,135c0,58 -13,106 -40,145s-65,70 -117,95c71,20 123,56 158,107s52,113 52,185c0,58 -11,109 -34,151c-23,43 -53,77 -91,104s-82,47 -131,60s-99,19 -150,19l-558,0l0,-1151l543,0l1,0zm393,-1081c460,0 877,187 1179,488c302,302 488,718 488,1179c0,460 -187,877 -488,1179c-302,302 -718,488 -1179,488c-460,0 -877,-187 -1179,-488c-302,-302 -488,-718 -488,-1179c0,-460 187,-877 488,-1179c302,-302 718,-488 1179,-488zm1093,573c-280,-280 -666,-453 -1093,-453s-814,173 -1093,453c-280,280 -453,666 -453,1093s173,814 453,1093c280,280 666,453 1093,453s814,-173 1093,-453c280,-280 453,-666 453,-1093s-173,-814 -453,-1093zm-808,600l467,0l0,114l-467,0l0,-114zm104,858c34,34 84,50 148,50c46,0 86,-12 119,-35s53,-48 61,-74l202,0c-33,100 -81,172 -149,215c-66,43 -147,65 -241,65c-66,0 -125,-11 -178,-31c-53,-21 -97,-51 -134,-90c-36,-39 -65,-85 -85,-139s-30,-113 -30,-178c0,-62 10,-121 31,-174c21,-54 49,-100 87,-140c38,-39 83,-70 135,-93s110,-34 174,-34c70,0 132,14 185,41s96,64 130,110s58,99 73,158s20,121 16,186l-602,0c0,65 22,128 57,161l1,2zm263,-438c-27,-30 -73,-46 -129,-46c-37,0 -67,6 -91,19c-24,12 -43,28 -58,46s-25,38 -31,59c-6,20 -9,39 -11,55l373,0c-5,-58 -26,-102 -53,-132l0,-1zm-1078,-48c45,0 82,-11 111,-32s43,-56 43,-105c0,-27 -5,-49 -14,-66c-10,-17 -23,-31 -39,-40c-16,-10 -34,-17 -56,-20c-21,-4 -43,-6 -65,-6l-237,0l0,269l257,0zm14,490c25,0 49,-2 71,-7c23,-5 43,-13 60,-24s31,-26 41,-46c10,-19 15,-44 15,-74c0,-59 -17,-102 -50,-127s-77,-38 -132,-38l-275,0l0,317l270,0l0,-1z"/>
 </g>
</svg>