<svg width="640" height="640" xmlns="http://www.w3.org/2000/svg" clip-rule="evenodd">

 <g>
  <title>background</title>
  <rect fill="none" id="canvas_background" height="514" width="514" y="-1" x="-1"/>
 </g>
 <g>
  <title>Layer 1</title>
  <path fill="#283618" id="svg_1" d="m320,-0.012c-176.471,0 -320.012,143.494 -320.012,320.012s143.494,320.012 320.012,320.012s320.012,-143.518 320.012,-320.012s-143.518,-320.012 -320.012,-320.012zm0,597.244c-28.63,0 -56.115,-4.346 -82.123,-12.366c11.232,-18.355 28.24,-48.627 34.488,-72.639c3.355,-13.004 17.233,-65.883 17.233,-65.883c9,17.233 35.528,31.879 63.485,31.879c83.635,0 143.872,-76.867 143.872,-172.514c0,-91.643 -74.753,-160.112 -170.872,-160.112c-119.647,0 -183.132,80.351 -183.132,167.766c0,40.642 21.638,91.241 56.245,107.352c5.244,2.527 7.996,1.358 9.236,-3.756c0.874,-3.886 5.634,-22.654 7.748,-31.477c0.638,-2.776 0.366,-5.256 -1.866,-7.996c-11.48,-13.89 -20.646,-39.52 -20.646,-63.249c0,-61.123 46.253,-120.356 125.128,-120.356c68.115,0 115.75,46.37 115.75,112.773c0,75.001 -37.88,127.005 -87.12,127.005c-27.248,0 -47.634,-22.524 -40.997,-50.115c7.867,-33 22.985,-68.516 22.985,-92.233c0,-21.248 -11.35,-39.012 -35.115,-39.012c-27.874,0 -50.114,28.76 -50.114,67.37c0,24.473 8.232,41.115 8.232,41.115s-27.508,116.127 -32.517,137.766c-5.634,24 -3.355,57.639 -0.992,79.513c-103.123,-40.24 -176.246,-140.47 -176.246,-258.003c0,-153.12 124.112,-277.232 277.232,-277.232c153.12,0 277.232,124.112 277.232,277.232c0,153.12 -124.112,277.244 -277.232,277.244l0.106,-0.07l0,-0.002z"/>
 </g>
</svg>